<?xml version="1.0" standalone="no"?>
<!DOCTYPE svg PUBLIC "-//W3C//DTD SVG 20010904//EN"
 "http://www.w3.org/TR/2001/REC-SVG-20010904/DTD/svg10.dtd">
<svg version="1.0" xmlns="http://www.w3.org/2000/svg"
 width="500.000000pt" height="500.000000pt" viewBox="0 0 500.000000 500.000000"
 preserveAspectRatio="xMidYMid meet">
<metadata>
Created by potrace 1.14, written by Peter Selinger 2001-2017
</metadata>
<g transform="translate(0.000000,500.000000) scale(0.100000,-0.100000)"
fill="#000000" stroke="none">
<path d="M1073 4460 c-34 -60 -58 -110 -54 -110 4 0 22 26 38 58 65 123 77
142 85 142 4 0 8 5 8 10 0 28 -22 0 -77 -100z"/>
<path d="M1180 4559 c0 -5 5 -7 10 -4 6 3 10 8 10 11 0 2 -4 4 -10 4 -5 0 -10
-5 -10 -11z"/>
<path d="M1210 4562 c0 -9 47 -8 57 1 3 4 -8 7 -25 7 -18 0 -32 -4 -32 -8z"/>
<path d="M1290 4560 c0 -5 7 -7 15 -4 8 4 15 8 15 10 0 2 -7 4 -15 4 -8 0 -15
-4 -15 -10z"/>
<path d="M1330 4561 c0 -7 80 -4 88 3 2 3 -17 4 -42 4 -25 0 -46 -3 -46 -7z"/>
<path d="M1430 4559 c0 -5 5 -7 10 -4 6 3 10 8 10 11 0 2 -4 4 -10 4 -5 0 -10
-5 -10 -11z"/>
<path d="M1460 4562 c0 -5 7 -9 15 -9 8 0 15 4 15 9 0 4 -7 8 -15 8 -8 0 -15
-4 -15 -8z"/>
<path d="M1505 4560 c3 -5 8 -10 11 -10 2 0 4 5 4 10 0 6 -5 10 -11 10 -5 0
-7 -4 -4 -10z"/>
<path d="M1530 4560 c0 -5 7 -7 15 -4 8 4 15 8 15 10 0 2 -7 4 -15 4 -8 0 -15
-4 -15 -10z"/>
<path d="M1575 4560 c4 -6 11 -8 16 -5 14 9 11 15 -7 15 -8 0 -12 -5 -9 -10z"/>
<path d="M1610 4560 c0 -5 7 -7 15 -4 8 4 15 8 15 10 0 2 -7 4 -15 4 -8 0 -15
-4 -15 -10z"/>
<path d="M1650 4561 c0 -7 80 -4 88 3 2 3 -17 4 -42 4 -25 0 -46 -3 -46 -7z"/>
<path d="M1750 4559 c0 -5 5 -7 10 -4 6 3 10 8 10 11 0 2 -4 4 -10 4 -5 0 -10
-5 -10 -11z"/>
<path d="M1780 4562 c0 -5 7 -9 15 -9 8 0 15 4 15 9 0 4 -7 8 -15 8 -8 0 -15
-4 -15 -8z"/>
<path d="M1825 4560 c3 -5 8 -10 11 -10 2 0 4 5 4 10 0 6 -5 10 -11 10 -5 0
-7 -4 -4 -10z"/>
<path d="M1850 4560 c0 -5 7 -7 15 -4 8 4 15 8 15 10 0 2 -7 4 -15 4 -8 0 -15
-4 -15 -10z"/>
<path d="M1895 4561 c4 -8 75 -4 83 4 2 2 -17 3 -42 3 -25 0 -44 -3 -41 -7z"/>
<path d="M1990 4560 c0 -5 5 -10 10 -10 6 0 10 5 10 10 0 6 -4 10 -10 10 -5 0
-10 -4 -10 -10z"/>
<path d="M2025 4560 c4 -6 11 -8 16 -5 14 9 11 15 -7 15 -8 0 -12 -5 -9 -10z"/>
<path d="M2060 4560 c0 -7 70 -3 78 5 2 2 -14 4 -37 3 -23 0 -41 -4 -41 -8z"/>
<path d="M2170 4562 c0 -9 47 -8 57 1 3 4 -8 7 -25 7 -18 0 -32 -4 -32 -8z"/>
<path d="M2270 4559 c0 -5 5 -7 10 -4 6 3 10 8 10 11 0 2 -4 4 -10 4 -5 0 -10
-5 -10 -11z"/>
<path d="M2300 4561 c0 -5 9 -7 20 -4 11 3 20 7 20 9 0 2 -9 4 -20 4 -11 0
-20 -4 -20 -9z"/>
<path d="M2350 4559 c0 -5 5 -7 10 -4 6 3 10 8 10 11 0 2 -4 4 -10 4 -5 0 -10
-5 -10 -11z"/>
<path d="M2380 4559 c0 -5 5 -7 10 -4 6 3 10 8 10 11 0 2 -4 4 -10 4 -5 0 -10
-5 -10 -11z"/>
<path d="M2410 4560 c0 -5 7 -7 15 -4 8 4 15 8 15 10 0 2 -7 4 -15 4 -8 0 -15
-4 -15 -10z"/>
<path d="M2450 4561 c0 -7 80 -4 88 3 2 3 -17 4 -42 4 -25 0 -46 -3 -46 -7z"/>
<path d="M2550 4559 c0 -5 5 -7 10 -4 6 3 10 8 10 11 0 2 -4 4 -10 4 -5 0 -10
-5 -10 -11z"/>
<path d="M2580 4562 c0 -5 7 -9 15 -9 8 0 15 4 15 9 0 4 -7 8 -15 8 -8 0 -15
-4 -15 -8z"/>
<path d="M2625 4560 c3 -5 8 -10 11 -10 2 0 4 5 4 10 0 6 -5 10 -11 10 -5 0
-7 -4 -4 -10z"/>
<path d="M2650 4560 c0 -5 7 -7 15 -4 8 4 15 8 15 10 0 2 -7 4 -15 4 -8 0 -15
-4 -15 -10z"/>
<path d="M2694 4561 c3 -5 15 -7 26 -4 28 7 25 13 -6 13 -14 0 -23 -4 -20 -9z"/>
<path d="M2750 4559 c0 -5 5 -7 10 -4 6 3 10 8 10 11 0 2 -4 4 -10 4 -5 0 -10
-5 -10 -11z"/>
<path d="M2780 4561 c0 -5 9 -7 20 -4 11 3 20 7 20 9 0 2 -9 4 -20 4 -11 0
-20 -4 -20 -9z"/>
<path d="M2830 4559 c0 -5 5 -7 10 -4 6 3 10 8 10 11 0 2 -4 4 -10 4 -5 0 -10
-5 -10 -11z"/>
<path d="M2860 4560 c0 -7 70 -3 78 5 2 2 -14 4 -37 3 -23 0 -41 -4 -41 -8z"/>
<path d="M2950 4560 c0 -5 5 -10 10 -10 6 0 10 5 10 10 0 6 -4 10 -10 10 -5 0
-10 -4 -10 -10z"/>
<path d="M2985 4560 c4 -6 11 -8 16 -5 14 9 11 15 -7 15 -8 0 -12 -5 -9 -10z"/>
<path d="M3020 4560 c0 -7 70 -3 78 5 2 2 -14 4 -37 3 -23 0 -41 -4 -41 -8z"/>
<path d="M3130 4562 c0 -9 47 -8 57 1 3 4 -8 7 -25 7 -18 0 -32 -4 -32 -8z"/>
<path d="M3210 4560 c0 -5 7 -7 15 -4 8 4 15 8 15 10 0 2 -7 4 -15 4 -8 0 -15
-4 -15 -10z"/>
<path d="M3250 4561 c0 -7 80 -4 88 3 2 3 -17 4 -42 4 -25 0 -46 -3 -46 -7z"/>
<path d="M3350 4559 c0 -5 5 -7 10 -4 6 3 10 8 10 11 0 2 -4 4 -10 4 -5 0 -10
-5 -10 -11z"/>
<path d="M3380 4562 c0 -5 7 -9 15 -9 8 0 15 4 15 9 0 4 -7 8 -15 8 -8 0 -15
-4 -15 -8z"/>
<path d="M3425 4560 c3 -5 8 -10 11 -10 2 0 4 5 4 10 0 6 -5 10 -11 10 -5 0
-7 -4 -4 -10z"/>
<path d="M3450 4560 c0 -5 7 -7 15 -4 8 4 15 8 15 10 0 2 -7 4 -15 4 -8 0 -15
-4 -15 -10z"/>
<path d="M3495 4560 c4 -6 11 -8 16 -5 14 9 11 15 -7 15 -8 0 -12 -5 -9 -10z"/>
<path d="M3530 4560 c0 -5 7 -7 15 -4 8 4 15 8 15 10 0 2 -7 4 -15 4 -8 0 -15
-4 -15 -10z"/>
<path d="M3570 4561 c0 -7 80 -4 88 3 2 3 -17 4 -42 4 -25 0 -46 -3 -46 -7z"/>
<path d="M3670 4559 c0 -5 5 -7 10 -4 6 3 10 8 10 11 0 2 -4 4 -10 4 -5 0 -10
-5 -10 -11z"/>
<path d="M3700 4562 c0 -5 7 -9 15 -9 8 0 15 4 15 9 0 4 -7 8 -15 8 -8 0 -15
-4 -15 -8z"/>
<path d="M3745 4560 c3 -5 8 -10 11 -10 2 0 4 5 4 10 0 6 -5 10 -11 10 -5 0
-7 -4 -4 -10z"/>
<path d="M3770 4560 c0 -5 7 -7 15 -4 8 4 15 8 15 10 0 2 -7 4 -15 4 -8 0 -15
-4 -15 -10z"/>
<path d="M3815 4560 c3 -5 12 -7 20 -3 21 7 19 13 -6 13 -11 0 -18 -4 -14 -10z"/>
<path d="M3860 4560 c0 -5 5 -10 11 -10 5 0 7 5 4 10 -3 6 -8 10 -11 10 -2 0
-4 -4 -4 -10z"/>
<path d="M3882 4518 c7 -13 17 -26 21 -29 5 -3 8 -10 7 -15 -1 -5 4 -10 12
-12 11 -3 11 -2 0 6 -8 5 -14 13 -14 18 -1 17 -21 54 -30 54 -4 0 -3 -10 4
-22z"/>
<path d="M3956 4383 c64 -118 79 -143 88 -143 5 0 4 6 -2 13 -16 18 -81 138
-93 170 -6 15 -15 27 -20 27 -5 0 8 -30 27 -67z"/>
<path d="M1221 4380 c-16 -22 -73 -126 -186 -335 -21 -38 -53 -96 -71 -128
-19 -32 -34 -60 -34 -62 0 -2 -76 -143 -169 -312 -92 -169 -188 -344 -212
-388 -23 -44 -114 -210 -201 -368 l-157 -289 36 -66 c20 -37 49 -92 66 -122
16 -30 40 -73 52 -95 12 -22 38 -69 58 -105 19 -36 46 -85 59 -110 95 -171
179 -325 230 -420 19 -36 131 -240 248 -455 117 -214 228 -419 248 -455 19
-36 37 -67 39 -70 3 -3 576 -5 1274 -5 l1270 0 191 350 c105 192 203 373 218
400 15 28 68 124 117 215 108 198 386 707 421 770 14 25 40 73 58 108 l33 62
-43 78 c-24 42 -59 106 -78 142 -20 36 -74 135 -121 220 -46 85 -100 184 -119
220 -20 36 -50 92 -68 125 -18 33 -48 89 -68 125 -19 36 -50 91 -68 123 -19
32 -34 60 -34 62 0 2 -17 34 -38 72 -21 37 -57 102 -79 143 -22 41 -77 142
-122 223 -44 82 -81 150 -81 151 0 2 -25 47 -55 101 -30 53 -55 101 -55 106 0
12 137 10 -1289 12 l-1253 2 -17 -25z m2341 -319 c7 -1 34 -47 98 -166 24 -44
60 -111 82 -148 21 -38 38 -70 38 -72 0 -2 17 -34 38 -72 22 -37 55 -97 74
-133 20 -36 47 -85 60 -110 52 -95 103 -187 133 -245 18 -33 55 -100 82 -150
75 -136 124 -225 153 -280 15 -27 43 -80 64 -118 l37 -67 -52 -98 c-28 -53
-55 -101 -59 -107 -4 -5 -30 -54 -59 -107 -28 -54 -62 -117 -75 -140 -24 -44
-66 -122 -117 -215 -61 -112 -89 -164 -178 -326 -51 -93 -103 -188 -115 -210
-12 -23 -62 -115 -110 -204 l-89 -162 -1067 0 -1066 0 -94 172 c-52 95 -105
192 -118 217 -14 25 -48 88 -77 140 -29 52 -67 122 -85 155 -18 33 -45 83 -60
110 -15 28 -42 76 -59 108 -17 31 -45 83 -62 115 -18 31 -48 86 -67 122 -19
36 -43 79 -52 95 -9 17 -54 98 -99 182 l-83 152 97 178 c148 270 156 284 185
338 15 28 45 82 65 120 21 39 41 75 45 80 4 6 31 55 60 110 45 85 166 307 245
450 12 22 43 81 70 130 73 138 84 153 108 157 18 2 2085 1 2109 -1z"/>
<path d="M1544 3962 c-6 -4 -9 -77 -9 -177 1 -152 -6 -219 -24 -235 -14 -12
-51 -90 -42 -90 5 0 11 8 15 18 3 9 11 26 18 37 7 11 18 27 23 37 8 12 11 -13
10 -95 l0 -112 650 -5 650 -5 1 -250 c1 -137 -1 -255 -3 -262 -3 -7 -46 -11
-139 -11 -74 0 -137 -1 -139 -4 -2 -2 -5 -142 -7 -311 -3 -267 -1 -307 12
-308 8 -1 69 -2 135 -3 66 -1 125 -4 131 -8 7 -5 11 -88 11 -258 0 -221 -2
-252 -16 -259 -9 -4 -73 -7 -143 -6 -71 0 -128 -2 -128 -5 -2 -114 -11 -215
-23 -250 -19 -62 -58 -150 -66 -150 -3 0 -12 -15 -20 -32 -8 -18 -50 -68 -93
-110 -43 -43 -75 -78 -71 -79 4 0 175 0 380 0 315 -1 381 2 430 16 108 30 168
67 250 152 48 50 116 169 106 185 -3 6 -1 8 4 5 6 -4 14 0 17 9 9 22 8 26 -5
18 -8 -4 -9 1 -3 17 10 33 12 688 1 768 -11 85 -40 159 -93 238 l-43 65 29 36
c39 50 84 145 101 212 20 84 17 745 -4 820 -18 65 -14 77 8 24 9 -21 20 -41
26 -45 6 -3 11 -12 13 -20 3 -21 80 -159 89 -159 8 0 -10 35 -32 63 -8 9 -10
17 -5 17 5 0 4 4 -2 8 -5 4 -18 25 -28 47 -10 22 -25 48 -34 58 -8 9 -11 17
-6 17 5 0 4 4 -1 8 -6 4 -16 20 -23 35 -7 15 -17 25 -22 22 -6 -4 -7 1 -3 11
5 13 3 15 -7 9 -9 -6 -11 -4 -6 4 5 7 0 19 -10 27 -11 9 -13 13 -7 9 9 -4 11
-1 7 9 -3 9 -12 16 -20 16 -8 0 -14 5 -14 11 0 5 5 7 12 3 7 -4 8 -3 4 4 -4 7
-12 12 -18 12 -7 0 -28 17 -47 39 -45 48 -112 96 -171 122 -103 46 -119 47
-878 47 -395 0 -723 -3 -728 -6z"/>
<path d="M1379 3313 c-34 -65 -67 -125 -74 -133 -16 -20 -26 -50 -17 -50 4 0
13 12 19 28 7 15 30 59 53 97 22 39 45 81 50 94 6 13 20 37 31 52 11 16 16 29
10 29 -5 0 -38 -53 -72 -117z"/>
<path d="M3608 3308 c49 -81 82 -140 82 -147 0 -5 7 -14 15 -21 9 -8 15 -8 15
-2 0 6 -3 12 -7 14 -7 3 -43 67 -77 135 -6 13 -14 23 -18 23 -5 0 -8 7 -8 15
0 8 -5 15 -11 15 -6 0 -2 -15 9 -32z"/>
<path d="M1829 3240 c-1 -3 -2 -357 -3 -788 -1 -615 -4 -784 -14 -791 -7 -4
-72 -7 -145 -6 l-133 1 1 -109 c1 -59 -3 -110 -7 -113 -4 -3 -4 -13 0 -22 5
-9 8 -99 7 -199 l0 -183 45 -1 c124 -3 420 1 454 7 182 27 361 190 402 364 4
19 9 42 11 50 3 12 6 1690 4 1775 -1 20 -7 20 -311 20 -170 0 -311 -2 -311 -5z"/>
<path d="M1272 3113 c-6 -2 -10 -9 -6 -14 3 -5 1 -9 -4 -9 -6 0 -12 -7 -16
-15 -10 -26 9 -16 27 15 10 17 17 30 15 29 -2 0 -9 -3 -16 -6z"/>
<path d="M3729 3091 c12 -16 21 -33 21 -39 0 -5 8 -16 17 -23 10 -9 6 6 -13
38 -16 29 -33 53 -37 53 -5 0 1 -13 12 -29z"/>
<path d="M1209 3000 c-15 -28 -24 -50 -20 -50 3 0 18 23 33 50 16 28 25 50 20
50 -4 0 -19 -23 -33 -50z"/>
<path d="M3787 2983 c10 -16 25 -41 33 -58 8 -16 21 -38 29 -47 8 -10 10 -18
5 -18 -5 0 -4 -4 1 -8 11 -8 18 -19 60 -100 27 -51 45 -73 45 -53 0 5 -3 11
-7 13 -5 2 -17 21 -28 43 -54 107 -139 255 -147 255 -5 0 -1 -12 9 -27z"/>
<path d="M1150 2893 c-13 -27 -34 -64 -47 -84 -12 -20 -20 -39 -17 -41 2 -3
-2 -11 -11 -18 -8 -7 -15 -19 -15 -26 0 -8 -4 -14 -10 -14 -5 0 -10 -4 -10
-10 0 -20 17 -9 31 19 36 76 74 146 79 151 4 3 14 20 23 38 25 51 5 37 -23
-15z"/>
<path d="M1026 2664 c-9 -24 -2 -26 12 -4 7 11 8 20 3 20 -5 0 -12 -7 -15 -16z"/>
<path d="M3957 2669 c7 -7 15 -10 18 -7 3 3 -2 9 -12 12 -14 6 -15 5 -6 -5z"/>
<path d="M4008 2578 c22 -40 45 -73 51 -74 6 -2 7 0 1 3 -5 2 -10 10 -10 18 0
7 -7 18 -15 25 -8 7 -12 16 -9 21 3 5 1 9 -4 9 -4 0 -14 16 -22 35 -8 19 -18
35 -23 35 -5 0 9 -32 31 -72z"/>
<path d="M990 2595 c-6 -19 -15 -35 -19 -35 -4 0 -13 -15 -19 -34 -12 -32 -10
-39 15 -85 15 -28 32 -51 36 -51 9 0 7 3 -31 63 l-23 39 28 56 c15 32 31 59
36 60 10 5 9 22 -2 22 -5 0 -15 -16 -21 -35z"/>
<path d="M4036 2475 c-3 -8 -1 -15 3 -15 5 0 11 7 15 15 3 8 1 15 -3 15 -5 0
-11 -7 -15 -15z"/>
<path d="M3986 2378 c-21 -40 -47 -88 -58 -105 -11 -18 -16 -33 -11 -33 4 0
13 10 19 23 28 54 74 138 90 161 9 14 12 26 7 26 -5 0 -26 -33 -47 -72z"/>
<path d="M1007 2373 c-5 -8 20 -50 26 -42 2 2 -2 15 -9 27 -6 13 -14 20 -17
15z"/>
<path d="M1035 2310 c3 -5 11 -10 16 -10 6 0 7 5 4 10 -3 6 -11 10 -16 10 -6
0 -7 -4 -4 -10z"/>
<path d="M1050 2280 c0 -5 5 -10 10 -10 6 0 10 5 10 10 0 6 -4 10 -10 10 -5 0
-10 -4 -10 -10z"/>
<path d="M1066 2253 c6 -4 36 -55 66 -113 91 -173 101 -190 110 -190 4 0 -5
21 -20 48 -16 26 -31 54 -35 62 -32 70 -106 194 -117 198 -10 2 -11 1 -4 -5z"/>
<path d="M3892 2210 c-6 -11 -12 -22 -12 -25 0 -11 20 6 30 26 14 25 -2 25
-18 -1z"/>
<path d="M3860 2142 c-8 -15 -23 -39 -33 -54 -10 -16 -14 -28 -9 -28 10 0 66
99 60 106 -3 2 -11 -8 -18 -24z"/>
<path d="M3796 2035 c-3 -8 -1 -15 3 -15 5 0 11 7 15 15 3 8 1 15 -3 15 -5 0
-11 -7 -15 -15z"/>
<path d="M3780 1996 c0 -8 -4 -16 -8 -18 -12 -5 -53 -88 -43 -88 8 0 29 40 27
51 0 4 6 15 15 25 24 29 31 44 20 44 -6 0 -11 -6 -11 -14z"/>
<path d="M1252 1915 c6 -14 15 -25 19 -25 4 0 2 11 -4 25 -7 14 -15 25 -19 25
-4 0 -2 -11 4 -25z"/>
<path d="M1277 1865 c3 -8 9 -12 14 -9 12 7 11 11 -5 17 -10 4 -13 1 -9 -8z"/>
<path d="M3678 1815 c-20 -36 -33 -65 -29 -65 9 0 74 120 68 126 -2 2 -20 -25
-39 -61z"/>
<path d="M1295 1841 c-3 -6 -2 -11 2 -11 5 0 19 -22 32 -50 13 -27 27 -50 31
-50 5 0 -6 26 -23 58 -37 70 -34 66 -42 53z"/>
<path d="M3630 1730 c0 -5 0 -13 1 -16 0 -4 -4 -10 -9 -13 -14 -9 -92 -161
-83 -161 4 0 16 19 27 43 10 23 24 48 31 55 7 7 13 19 13 26 0 8 7 19 15 26 9
7 13 15 10 18 -3 3 0 11 6 19 9 9 8 13 0 13 -6 0 -11 -4 -11 -10z"/>
<path d="M1394 1655 c21 -37 51 -91 65 -119 39 -72 55 -96 65 -96 4 0 4 6 -2
13 -5 6 -22 35 -37 62 -15 28 -39 70 -53 95 -14 25 -32 57 -39 72 -8 15 -19
31 -25 35 -7 3 5 -24 26 -62z"/>
<path d="M3515 1520 c-3 -5 -2 -10 4 -10 5 0 13 5 16 10 3 6 2 10 -4 10 -5 0
-13 -4 -16 -10z"/>
<path d="M3488 1465 c-10 -19 -14 -35 -10 -35 5 0 16 16 25 35 9 19 13 35 9
35 -4 0 -15 -16 -24 -35z"/>
<path d="M991 4313 c-6 -16 -21 -45 -32 -66 -12 -21 -20 -40 -18 -42 2 -2 21
28 42 66 20 38 33 69 28 69 -5 0 -14 -12 -20 -27z"/>
<path d="M4072 4173 c17 -32 35 -64 40 -70 6 -7 7 -13 2 -13 -5 0 -4 -4 1 -8
6 -4 16 -18 23 -32 7 -14 28 -52 45 -85 18 -33 43 -80 56 -103 12 -24 24 -42
27 -40 4 5 -94 198 -105 208 -3 3 -28 49 -56 103 -27 53 -53 97 -56 97 -4 0 6
-26 23 -57z"/>
<path d="M892 4130 c-17 -33 -29 -60 -25 -60 10 0 75 120 65 120 -4 0 -22 -27
-40 -60z"/>
<path d="M847 4054 c-4 -4 -7 -14 -7 -23 0 -11 3 -12 11 -4 6 6 10 16 7 23 -2
6 -7 8 -11 4z"/>
<path d="M813 3985 c-6 -14 -8 -25 -4 -25 4 0 13 11 19 25 6 14 8 25 4 25 -4
0 -12 -11 -19 -25z"/>
<path d="M774 3910 c-10 -22 -21 -40 -26 -40 -4 0 -8 -4 -8 -10 0 -29 32 7 39
45 1 6 10 18 18 28 9 9 11 17 5 17 -6 0 -18 -18 -28 -40z"/>
<path d="M722 3820 c-7 -11 -8 -20 -3 -20 9 0 24 30 18 36 -1 2 -8 -6 -15 -16z"/>
<path d="M689 3758 c-35 -72 -74 -143 -84 -150 -6 -5 -6 -8 0 -8 7 0 7 -3 0
-8 -5 -4 -17 -20 -26 -37 -77 -141 -98 -185 -91 -185 4 0 27 37 50 83 23 45
67 127 98 182 30 55 58 108 61 118 3 9 9 17 14 17 5 0 9 5 9 10 0 21 -16 9
-31 -22z"/>
<path d="M4317 3723 c20 -38 47 -86 60 -108 13 -22 26 -48 30 -57 3 -10 9 -18
14 -18 9 0 -24 64 -81 161 -15 25 -31 55 -34 67 -4 12 -11 22 -17 22 -5 0 8
-30 28 -67z"/>
<path d="M4437 3500 c9 -16 21 -30 25 -30 4 0 -1 13 -10 30 -9 16 -21 30 -25
30 -5 0 0 -13 10 -30z"/>
<path d="M4486 3411 c16 -28 31 -51 35 -51 9 0 -39 87 -52 96 -6 3 2 -17 17
-45z"/>
<path d="M458 3332 c-7 -18 -16 -32 -21 -32 -4 0 -6 -4 -3 -9 3 -5 -4 -20 -15
-35 -11 -14 -16 -26 -11 -26 12 0 75 121 67 128 -3 3 -11 -9 -17 -26z"/>
<path d="M4534 3325 c6 -13 14 -21 18 -19 10 6 -1 31 -16 37 -11 4 -11 0 -2
-18z"/>
<path d="M4579 3240 c14 -27 29 -50 34 -50 4 0 -5 23 -20 50 -15 28 -30 50
-34 50 -4 0 5 -22 20 -50z"/>
<path d="M376 3184 c-9 -20 -15 -39 -12 -41 2 -3 14 14 24 36 11 23 17 41 13
41 -4 0 -15 -16 -25 -36z"/>
<path d="M4622 3160 c7 -11 16 -20 20 -20 5 0 3 9 -4 20 -7 11 -16 20 -20 20
-5 0 -3 -9 4 -20z"/>
<path d="M337 3118 c-2 -7 -4 -15 -3 -18 0 -3 -9 -20 -22 -37 -13 -18 -20 -33
-15 -33 12 0 44 56 36 64 -3 3 -2 6 4 6 6 0 13 7 17 15 3 8 1 15 -3 15 -5 0
-11 -6 -14 -12z"/>
<path d="M4666 3080 c9 -16 20 -32 25 -35 5 -4 7 -11 4 -16 -4 -5 -1 -9 4 -9
6 0 11 -6 11 -14 0 -8 5 -18 12 -22 13 -8 13 -10 -27 68 -17 32 -33 58 -37 58
-3 0 0 -13 8 -30z"/>
<path d="M275 3001 c-6 -10 -21 -41 -34 -67 -13 -27 -29 -52 -35 -56 -6 -4 -7
-8 -2 -8 5 0 2 -8 -6 -17 -24 -28 -118 -213 -109 -213 5 0 14 12 20 28 6 15
31 63 56 107 24 44 53 96 62 115 10 19 20 37 23 40 13 13 50 90 43 90 -5 0
-13 -8 -18 -19z"/>
<path d="M4730 2961 c0 -4 8 -19 19 -32 10 -13 21 -34 25 -47 4 -12 11 -20 16
-17 10 6 -20 65 -32 65 -5 0 -8 9 -8 20 0 11 -4 20 -10 20 -5 0 -10 -4 -10 -9z"/>
<path d="M4820 2800 c17 -28 30 -55 30 -60 0 -6 5 -10 12 -10 6 0 8 -3 5 -7
-4 -3 -2 -12 3 -18 12 -14 49 -83 88 -162 14 -29 29 -53 34 -53 4 0 -8 30 -28
68 -20 37 -45 85 -56 107 -12 22 -26 43 -32 47 -6 4 -8 8 -3 8 4 0 -3 17 -16
38 -12 20 -29 49 -36 65 -8 15 -18 27 -22 27 -5 0 5 -23 21 -50z"/>
<path d="M51 2590 c-12 -22 -17 -40 -12 -40 6 0 11 6 11 14 0 7 9 25 21 40 11
14 16 26 12 26 -5 0 -19 -18 -32 -40z"/>
<path d="M12 2515 c-7 -15 -8 -25 -2 -25 6 0 9 -3 8 -7 -1 -5 6 -21 16 -38 17
-29 16 -22 -6 38 -7 20 -7 32 2 42 7 8 8 15 3 15 -5 0 -15 -11 -21 -25z"/>
<path d="M4962 2460 c-7 -11 -8 -20 -3 -20 9 0 24 30 18 36 -1 2 -8 -6 -15
-16z"/>
<path d="M4934 2408 c-3 -13 -13 -31 -22 -40 -8 -10 -10 -18 -4 -18 6 0 16 14
24 30 7 17 16 30 20 30 5 0 8 5 8 10 0 19 -19 10 -26 -12z"/>
<path d="M50 2401 c0 -5 4 -11 8 -13 5 -1 24 -32 43 -68 18 -36 37 -68 42 -71
5 -3 8 -10 7 -15 -1 -5 4 -10 12 -12 9 -2 8 0 -2 7 -8 6 -12 11 -7 11 4 0 -3
17 -16 38 -12 20 -34 58 -47 85 -23 43 -40 60 -40 38z"/>
<path d="M4875 2297 c-11 -23 -22 -44 -25 -47 -11 -9 -48 -90 -41 -90 3 0 27
41 54 90 26 50 44 90 40 90 -5 0 -17 -19 -28 -43z"/>
<path d="M160 2202 c0 -5 6 -14 13 -20 6 -6 28 -42 47 -81 19 -39 39 -71 43
-71 4 0 -11 35 -34 78 -42 75 -69 113 -69 94z"/>
<path d="M4771 2110 c-12 -22 -17 -40 -12 -40 6 0 11 6 11 14 0 7 9 25 21 40
11 14 16 26 12 26 -5 0 -19 -18 -32 -40z"/>
<path d="M4731 2034 c-16 -37 -9 -39 11 -3 9 16 14 29 9 29 -4 0 -13 -12 -20
-26z"/>
<path d="M266 2012 c6 -4 17 -18 23 -30 7 -13 15 -21 18 -19 7 8 -28 57 -41
57 -8 0 -8 -2 0 -8z"/>
<path d="M4696 1975 c-3 -8 -1 -15 3 -15 5 0 11 7 15 15 3 8 1 15 -3 15 -5 0
-11 -7 -15 -15z"/>
<path d="M317 1920 c11 -19 33 -59 48 -87 16 -29 33 -53 38 -53 6 0 2 9 -8 20
-10 11 -14 20 -9 20 5 0 5 4 -1 8 -5 4 -21 29 -35 55 -14 27 -32 54 -40 60 -8
7 -6 -2 7 -23z"/>
<path d="M4650 1883 c-19 -38 -37 -70 -40 -73 -4 -3 -14 -20 -23 -37 -26 -55
-3 -37 26 20 15 28 40 76 57 105 17 28 27 52 22 52 -4 0 -23 -30 -42 -67z"/>
<path d="M423 1732 c10 -10 14 -22 10 -25 -3 -4 -1 -7 5 -7 7 0 11 -3 10 -7
-2 -10 42 -96 52 -103 4 -3 21 -34 38 -70 37 -78 74 -144 85 -148 4 -2 7 -10
7 -18 0 -8 5 -14 11 -14 6 0 0 17 -12 38 -13 20 -28 46 -33 57 -6 11 -13 22
-16 25 -3 3 -20 34 -38 70 -46 93 -75 144 -87 152 -5 4 -6 8 -2 8 11 0 -25 60
-37 60 -5 0 -2 -8 7 -18z"/>
<path d="M4532 1669 c-13 -24 -17 -39 -9 -36 6 2 14 12 16 23 1 10 10 27 19
37 8 9 11 17 5 17 -5 0 -19 -18 -31 -41z"/>
<path d="M4486 1588 l-18 -33 26 29 c28 31 30 36 18 36 -4 0 -16 -15 -26 -32z"/>
<path d="M4454 1528 c-3 -13 -13 -31 -22 -40 -8 -10 -10 -18 -4 -18 6 0 16 14
24 30 7 17 16 30 20 30 5 0 8 5 8 10 0 19 -19 10 -26 -12z"/>
<path d="M4398 1423 c-24 -51 -14 -54 12 -4 11 23 17 41 13 41 -5 -1 -16 -17
-25 -37z"/>
<path d="M4344 1325 c-11 -25 -17 -45 -13 -45 4 0 13 16 20 35 7 19 17 35 21
35 4 0 8 5 8 10 0 23 -16 7 -36 -35z"/>
<path d="M672 1270 c12 -22 25 -40 29 -40 4 0 -2 18 -14 40 -12 22 -25 40 -29
40 -4 0 3 -18 14 -40z"/>
<path d="M4293 1231 c-15 -29 -17 -38 -7 -34 8 3 14 12 14 21 0 8 7 24 17 34
9 10 12 18 6 18 -5 0 -19 -18 -30 -39z"/>
<path d="M721 1182 c21 -43 39 -62 39 -43 0 6 -4 11 -10 11 -5 0 -10 6 -10 14
0 8 -9 24 -20 37 -20 23 -20 22 1 -19z"/>
<path d="M4237 1128 c-26 -51 -58 -110 -145 -265 -22 -40 -37 -73 -34 -73 7 0
39 56 98 170 16 30 32 57 37 58 4 2 7 7 7 11 0 5 18 40 39 80 22 39 36 71 32
71 -4 0 -20 -24 -34 -52z"/>
<path d="M760 1110 c0 -5 5 -10 11 -10 5 0 7 5 4 10 -3 6 -8 10 -11 10 -2 0
-4 -4 -4 -10z"/>
<path d="M797 1040 c15 -27 32 -50 36 -50 5 0 -1 15 -13 33 -12 17 -24 40 -27
50 -3 9 -10 17 -15 17 -5 0 3 -22 19 -50z"/>
<path d="M866 918 c19 -35 38 -71 41 -80 3 -10 9 -18 14 -18 11 0 -73 160 -83
160 -4 0 8 -28 28 -62z"/>
<path d="M925 800 c3 -5 11 -10 16 -10 6 0 7 5 4 10 -3 6 -11 10 -16 10 -6 0
-7 -4 -4 -10z"/>
<path d="M957 746 c10 -20 21 -36 26 -36 9 0 -19 56 -33 65 -6 4 -2 -10 7 -29z"/>
<path d="M4036 765 c-3 -8 -1 -15 3 -15 5 0 11 7 15 15 3 8 1 15 -3 15 -5 0
-11 -7 -15 -15z"/>
<path d="M3997 688 c-43 -85 -75 -142 -87 -156 -6 -7 -9 -18 -7 -25 2 -7 13 6
23 28 11 22 22 42 27 43 4 2 7 7 7 11 0 5 18 40 39 80 22 39 36 71 32 71 -4 0
-20 -24 -34 -52z"/>
<path d="M980 696 c0 -2 7 -7 16 -10 8 -3 12 -2 9 4 -6 10 -25 14 -25 6z"/>
<path d="M1000 659 c0 -5 5 -7 10 -4 6 3 10 8 10 11 0 2 -4 4 -10 4 -5 0 -10
-5 -10 -11z"/>
<path d="M1020 640 c0 -9 11 -32 25 -51 13 -20 22 -39 19 -41 -2 -3 2 -11 11
-18 8 -7 15 -19 15 -26 0 -8 5 -14 10 -14 6 0 10 -7 10 -15 0 -8 5 -15 11 -15
11 0 -27 70 -45 82 -6 4 -7 8 -2 8 4 0 0 12 -10 28 -10 15 -24 38 -31 52 -7
14 -13 18 -13 10z"/>
<path d="M3874 466 c-3 -15 -15 -27 -27 -29 -21 -4 -21 -4 1 -6 16 -1 26 6 29
19 3 11 9 20 14 20 5 0 9 5 9 10 0 20 -20 9 -26 -14z"/>
<path d="M1125 440 c3 -5 10 -10 16 -10 5 0 9 5 9 10 0 6 -7 10 -16 10 -8 0
-12 -4 -9 -10z"/>
<path d="M1225 440 c-18 -8 -17 -9 8 -9 16 -1 26 3 22 9 -3 6 -7 10 -8 9 -1 0
-11 -4 -22 -9z"/>
<path d="M1285 440 c-19 -8 -19 -9 3 -9 12 -1 22 4 22 9 0 6 -1 10 -2 9 -2 0
-12 -4 -23 -9z"/>
<path d="M1385 440 c-18 -8 -17 -9 8 -9 16 -1 26 3 22 9 -3 6 -7 10 -8 9 -1 0
-11 -4 -22 -9z"/>
<path d="M1490 438 c0 -5 17 -8 37 -8 20 0 33 3 30 7 -10 9 -67 10 -67 1z"/>
<path d="M1585 440 c-18 -8 -17 -9 8 -9 16 -1 26 3 22 9 -3 6 -7 10 -8 9 -1 0
-11 -4 -22 -9z"/>
<path d="M1730 438 c0 -5 14 -8 30 -8 17 0 30 3 30 8 0 4 -13 7 -30 7 -16 0
-30 -3 -30 -7z"/>
<path d="M1865 440 c-18 -8 -17 -9 8 -9 16 -1 26 3 22 9 -3 6 -7 10 -8 9 -1 0
-11 -4 -22 -9z"/>
<path d="M1925 440 c-19 -8 -19 -9 3 -9 12 -1 22 4 22 9 0 6 -1 10 -2 9 -2 0
-12 -4 -23 -9z"/>
<path d="M2025 440 c-18 -8 -17 -9 8 -9 16 -1 26 3 22 9 -3 6 -7 10 -8 9 -1 0
-11 -4 -22 -9z"/>
<path d="M2130 438 c0 -5 17 -8 37 -8 20 0 33 3 30 7 -10 9 -67 10 -67 1z"/>
<path d="M2225 440 c-18 -8 -17 -9 8 -9 16 -1 26 3 22 9 -3 6 -7 10 -8 9 -1 0
-11 -4 -22 -9z"/>
<path d="M2370 438 c0 -5 14 -8 30 -8 17 0 30 3 30 8 0 4 -13 7 -30 7 -16 0
-30 -3 -30 -7z"/>
<path d="M2505 440 c-18 -8 -17 -9 8 -9 16 -1 26 3 22 9 -3 6 -7 10 -8 9 -1 0
-11 -4 -22 -9z"/>
<path d="M2565 440 c-19 -8 -19 -9 3 -9 12 -1 22 4 22 9 0 6 -1 10 -2 9 -2 0
-12 -4 -23 -9z"/>
<path d="M2665 440 c-18 -8 -17 -9 8 -9 16 -1 26 3 22 9 -3 6 -7 10 -8 9 -1 0
-11 -4 -22 -9z"/>
<path d="M2770 438 c0 -5 17 -8 37 -8 20 0 33 3 30 7 -10 9 -67 10 -67 1z"/>
<path d="M2865 440 c-18 -8 -17 -9 8 -9 16 -1 26 3 22 9 -3 6 -7 10 -8 9 -1 0
-11 -4 -22 -9z"/>
<path d="M3010 438 c0 -5 14 -8 30 -8 17 0 30 3 30 8 0 4 -13 7 -30 7 -16 0
-30 -3 -30 -7z"/>
<path d="M3145 440 c-18 -8 -17 -9 8 -9 16 -1 26 3 22 9 -3 6 -7 10 -8 9 -1 0
-11 -4 -22 -9z"/>
<path d="M3205 440 c-19 -8 -19 -9 3 -9 12 -1 22 4 22 9 0 6 -1 10 -2 9 -2 0
-12 -4 -23 -9z"/>
<path d="M3305 440 c-18 -8 -17 -9 8 -9 16 -1 26 3 22 9 -3 6 -7 10 -8 9 -1 0
-11 -4 -22 -9z"/>
<path d="M3410 438 c0 -5 17 -8 37 -8 20 0 33 3 30 7 -10 9 -67 10 -67 1z"/>
<path d="M3505 440 c-18 -8 -17 -9 8 -9 16 -1 26 3 22 9 -3 6 -7 10 -8 9 -1 0
-11 -4 -22 -9z"/>
<path d="M3650 438 c0 -5 14 -8 30 -8 17 0 30 3 30 8 0 4 -13 7 -30 7 -16 0
-30 -3 -30 -7z"/>
<path d="M3785 440 c-18 -8 -17 -9 8 -9 16 -1 26 3 22 9 -3 6 -7 10 -8 9 -1 0
-11 -4 -22 -9z"/>
<path d="M1168 433 c6 -2 18 -2 25 0 6 3 1 5 -13 5 -14 0 -19 -2 -12 -5z"/>
<path d="M1328 433 c6 -2 18 -2 25 0 6 3 1 5 -13 5 -14 0 -19 -2 -12 -5z"/>
<path d="M1443 433 c9 -2 23 -2 30 0 6 3 -1 5 -18 5 -16 0 -22 -2 -12 -5z"/>
<path d="M1653 433 c15 -2 37 -2 50 0 12 2 0 4 -28 4 -27 0 -38 -2 -22 -4z"/>
<path d="M1808 433 c6 -2 18 -2 25 0 6 3 1 5 -13 5 -14 0 -19 -2 -12 -5z"/>
<path d="M1968 433 c6 -2 18 -2 25 0 6 3 1 5 -13 5 -14 0 -19 -2 -12 -5z"/>
<path d="M2083 433 c9 -2 23 -2 30 0 6 3 -1 5 -18 5 -16 0 -22 -2 -12 -5z"/>
<path d="M2293 433 c15 -2 37 -2 50 0 12 2 0 4 -28 4 -27 0 -38 -2 -22 -4z"/>
<path d="M2448 433 c6 -2 18 -2 25 0 6 3 1 5 -13 5 -14 0 -19 -2 -12 -5z"/>
<path d="M2608 433 c6 -2 18 -2 25 0 6 3 1 5 -13 5 -14 0 -19 -2 -12 -5z"/>
<path d="M2723 433 c9 -2 23 -2 30 0 6 3 -1 5 -18 5 -16 0 -22 -2 -12 -5z"/>
<path d="M2933 433 c15 -2 37 -2 50 0 12 2 0 4 -28 4 -27 0 -38 -2 -22 -4z"/>
<path d="M3088 433 c6 -2 18 -2 25 0 6 3 1 5 -13 5 -14 0 -19 -2 -12 -5z"/>
<path d="M3248 433 c6 -2 18 -2 25 0 6 3 1 5 -13 5 -14 0 -19 -2 -12 -5z"/>
<path d="M3363 433 c9 -2 23 -2 30 0 6 3 -1 5 -18 5 -16 0 -22 -2 -12 -5z"/>
<path d="M3573 433 c15 -2 37 -2 50 0 12 2 0 4 -28 4 -27 0 -38 -2 -22 -4z"/>
<path d="M3728 433 c6 -2 18 -2 25 0 6 3 1 5 -13 5 -14 0 -19 -2 -12 -5z"/>
</g>
</svg>
